<?xml version="1.0" encoding="UTF-8" standalone="no"?><!DOCTYPE svg PUBLIC "-//W3C//DTD SVG 1.1//EN" "http://www.w3.org/Graphics/SVG/1.1/DTD/svg11.dtd"><svg width="100%" height="100%" viewBox="0 0 118 46" version="1.1" xmlns="http://www.w3.org/2000/svg" xmlns:xlink="http://www.w3.org/1999/xlink" xml:space="preserve" xmlns:serif="http://www.serif.com/" style="fill-rule:evenodd;clip-rule:evenodd;stroke-linejoin:round;stroke-miterlimit:2;"><g><path d="M13.095,6.088c-0.016,-0.05 -0.031,-0.1 -0.045,-0.15c-0.21,-0.75 -0.186,-1.51 0.072,-2.281c0.335,-1 0.943,-1.821 1.824,-2.462c0.881,-0.64 1.911,-1.025 3.09,-1.153c1.179,-0.128 2.352,0.038 3.521,0.5c0.869,0.344 1.602,0.817 2.197,1.42c0.596,0.602 0.999,1.274 1.209,2.017c0.21,0.743 0.189,1.489 -0.062,2.239c-0.362,1.083 -0.999,1.939 -1.91,2.568c-0.589,0.407 -1.247,0.549 -1.959,0.624l0,-0l0,-0c-0.388,0.04 -0.792,0.061 -1.21,0.093c-0.191,0.015 -0.382,0.032 -0.571,0.048c-0.7,0.273 -1.272,0.912 -0.97,2.348c0.358,1.704 4.214,11.663 3.319,13.781c-2.179,-6.4 -5.049,-8.903 -12.667,-8.889c0,0 5.135,-0.989 5.257,-2.809c0.127,-1.905 -1.095,-7.894 -1.095,-7.894l-0,-0Z" style="fill:#e4e4e4;"/><g><path d="M20.808,2.502c0.334,-0.164 0.738,-0.027 0.903,0.307c0.165,0.333 0.028,0.738 -0.306,0.903c-0.334,0.165 -0.738,0.027 -0.903,-0.306c-0.165,-0.334 -0.028,-0.739 0.306,-0.904Z"/><path d="M22.826,9.121c0.715,0.235 1.345,-0.219 2.671,-0.16c1.652,0.073 3.511,0.487 5.028,0.039c1.886,-0.557 3.988,-1.809 3.455,-2.863c-0.321,-0.636 -7.206,-0.635 -9.065,-2.541c-0.52,-0.291 -0.427,1.501 -1.242,2.174c-0.723,0.597 -1.638,1.361 -1.51,2.586c0.024,0.226 0.605,0.509 0.663,0.765Z" style="fill:#e6b084;"/><path d="M22.826,9.121c0.702,0.231 1.053,-0.064 2.351,-0.002c1.668,0.08 3.81,0.335 5.348,-0.119c1.886,-0.557 2.277,-1.002 2.277,-1.002c-4.399,0.756 -7.028,-0.018 -10.353,-0.86c-0.678,0.705 -0.486,1.539 0.377,1.983Z" style="fill:#a57126;"/><path d="M25.326,5.009c0.175,0.049 0.326,0.155 0.337,0.235c0.011,0.08 -0.122,0.105 -0.297,0.056c-0.174,-0.05 -0.325,-0.155 -0.336,-0.235c-0.011,-0.08 0.122,-0.105 0.296,-0.056Z" style="fill:#fff;"/></g><g transform="matrix(0.0718873,0,-1.66533e-18,0.0713972,-68.929,-75.8161)"><text x="951.108px" y="1607.79px" style="font-family:'Athelas-BoldItalic', 'Athelas';font-weight:700;font-style:italic;font-size:483.702px;">Q</text><text x="1268.9px" y="1607.79px" style="font-family:'Athelas-BoldItalic', 'Athelas';font-weight:700;font-style:italic;font-size:483.702px;">u</text><text x="1505.91px" y="1607.79px" style="font-family:'Athelas-BoldItalic', 'Athelas';font-weight:700;font-style:italic;font-size:483.702px;">a</text><text x="1717.78px" y="1607.79px" style="font-family:'Athelas-BoldItalic', 'Athelas';font-weight:700;font-style:italic;font-size:483.702px;">c</text><text x="1895.29px" y="1607.79px" style="font-family:'Athelas-BoldItalic', 'Athelas';font-weight:700;font-style:italic;font-size:483.702px;">s</text><text x="2068.46px" y="1607.79px" style="font-family:'Athelas-BoldItalic', 'Athelas';font-weight:700;font-style:italic;font-size:483.702px;">t</text><text x="2206.8px" y="1607.79px" style="font-family:'Athelas-BoldItalic', 'Athelas';font-weight:700;font-style:italic;font-size:483.702px;">e</text><text x="2403.18px" y="1607.79px" style="font-family:'Athelas-BoldItalic', 'Athelas';font-weight:700;font-style:italic;font-size:483.702px;">r</text></g></g></svg>